<svg width="157" height="157" viewBox="0 0 157 157" fill="none" xmlns="http://www.w3.org/2000/svg"><path d="M131.88 78.5c0 29.516-23.864 53.38-53.38 53.38-29.516 0-53.38-23.864-53.38-53.38 0-29.516 23.864-53.38 53.38-53.38 29.516 0 53.38 23.864 53.38 53.38zm-100.48 0c0 26.062 21.038 47.1 47.1 47.1s47.1-21.038 47.1-47.1-21.038-47.1-47.1-47.1-47.1 21.038-47.1 47.1z" fill="#118400"/><path d="M83.838 52.438L57.776 78.5l26.062 26.062-4.396 4.396L48.984 78.5l30.458-30.458 4.396 4.396z" fill="#118400"/><path d="M53.38 81.64v-6.28h53.38v6.28H53.38z" fill="#118400"/></svg>