<svg width="48" height="48" viewBox="0 0 48 48" fill="none" xmlns="http://www.w3.org/2000/svg"><rect width="48" height="48" rx="15" fill="#118400" fill-opacity=".35"/><path d="M27.339 31.255a15.57 15.57 0 004.801-1.989 2.42 2.42 0 00-2.577-4.094 10.504 10.504 0 01-11.125 0 2.42 2.42 0 00-3.333.749v.005a2.412 2.412 0 00.756 3.333l.004.005a15.42 15.42 0 004.792 1.985l-4.62 4.619a2.394 2.394 0 00-.036 3.381l.041.041a2.358 2.358 0 001.699.708c.62 0 1.239-.235 1.697-.708l4.563-4.537 4.536 4.543c.964.921 2.495.9 3.423-.063a2.418 2.418 0 000-3.36l-4.621-4.618zM24 24.516a8.265 8.265 0 008.26-8.256C32.26 11.708 28.552 8 24 8s-8.26 3.708-8.26 8.26A8.27 8.27 0 0024 24.521v-.005zm0-11.672a3.418 3.418 0 012.416 5.834A3.424 3.424 0 0124 19.683a3.43 3.43 0 01-3.421-3.423A3.433 3.433 0 0124 12.839v.005z" fill="#fff"/></svg>