<svg width="48" height="48" viewBox="0 0 48 48" fill="none" xmlns="http://www.w3.org/2000/svg"><rect width="48" height="48" rx="15" fill="#118400" fill-opacity=".35"/><path fill-rule="evenodd" clip-rule="evenodd" d="M32.025 12.645a2.25 2.25 0 013.093 2.439l-3.402 20.635c-.33 1.99-2.514 3.132-4.34 2.14-1.526-.829-3.794-2.107-5.834-3.44-1.02-.668-4.145-2.805-3.76-4.326.33-1.3 5.58-6.188 8.58-9.093 1.177-1.142.64-1.8-.75-.75-3.454 2.607-8.998 6.571-10.83 7.687-1.618.984-2.46 1.152-3.469.984-1.839-.306-3.544-.78-4.936-1.357-1.881-.78-1.79-3.366-.002-4.12l25.65-10.8z" fill="#fff"/></svg>