<svg width="48" height="48" viewBox="0 0 48 48" fill="none" xmlns="http://www.w3.org/2000/svg"><rect width="48" height="48" rx="15" fill="#118400" fill-opacity=".35"/><path fill-rule="evenodd" clip-rule="evenodd" d="M37.153 28.521s2.83 2.795 3.53 4.088a.26.26 0 01.032.062c.285.477.355.852.215 1.129-.236.456-1.036.686-1.307.705H34.62c-.348 0-1.073-.091-1.955-.7-.673-.471-1.344-1.246-1.993-2.004-.97-1.125-1.808-2.102-2.656-2.102a.962.962 0 00-.315.053c-.643.203-1.458 1.118-1.458 3.556 0 .763-.602 1.197-1.024 1.197h-2.29c-.781 0-4.845-.273-8.448-4.073-4.415-4.651-8.38-13.982-8.42-14.064-.246-.604.272-.933.832-.933h5.05c.678 0 .898.41 1.052.777.179.422.84 2.109 1.925 4.004 1.757 3.083 2.837 4.338 3.7 4.338a.921.921 0 00.462-.122c1.127-.62.917-4.645.864-5.474 0-.161-.001-1.797-.579-2.588-.413-.568-1.116-.788-1.542-.869a1.83 1.83 0 01.665-.565c.772-.385 2.167-.44 3.551-.44h.768c1.502.02 1.89.117 2.436.255 1.1.262 1.12.975 1.024 3.4a56.793 56.793 0 00-.058 2.392c0 .196-.008.415-.008.637-.034 1.244-.077 2.646.801 3.222a.717.717 0 00.38.108c.304 0 1.216 0 3.689-4.243 1.085-1.875 1.925-4.085 1.983-4.251.049-.093.196-.353.374-.458a.838.838 0 01.413-.098h5.941c.648 0 1.087.097 1.173.342.143.398-.028 1.61-2.74 5.279-.457.61-.858 1.139-1.21 1.6-2.459 3.228-2.459 3.39.145 5.84z" fill="#fff"/></svg>