<svg width="157" height="157" viewBox="0 0 157 157" fill="none" xmlns="http://www.w3.org/2000/svg">
<path d="M131.88 78.5C131.88 108.016 108.016 131.88 78.5001 131.88C48.9841 131.88 25.1201 108.016 25.1201 78.5C25.1201 48.984 48.9841 25.12 78.5001 25.12C108.016 25.12 131.88 48.984 131.88 78.5ZM31.4001 78.5C31.4001 104.562 52.4381 125.6 78.5001 125.6C104.562 125.6 125.6 104.562 125.6 78.5C125.6 52.438 104.562 31.4 78.5001 31.4C52.4381 31.4 31.4001 52.438 31.4001 78.5Z" fill="#118400"/>
<path d="M83.8379 52.438L57.7759 78.5L83.8379 104.562L79.4419 108.958L48.9839 78.5L79.4419 48.042L83.8379 52.438Z" fill="#118400"/>
<path d="M53.3799 81.64L53.3799 75.36L106.76 75.36L106.76 81.64L53.3799 81.64Z" fill="#118400"/>
</svg>
