<svg width="48" height="48" viewBox="0 0 48 48" fill="none" xmlns="http://www.w3.org/2000/svg">
<rect width="48" height="48" rx="15" fill="#118400" fill-opacity="0.35"/>
<path d="M27.339 31.255C29.0394 30.8656 30.6624 30.1933 32.14 29.266C32.6609 28.9144 33.0246 28.374 33.1542 27.759C33.2837 27.1441 33.169 26.5028 32.8342 25.971C32.4994 25.4391 31.9709 25.0583 31.3603 24.9092C30.7498 24.7601 30.1053 24.8544 29.563 25.172C27.8946 26.2135 25.9673 26.7657 24.0005 26.7657C22.0337 26.7657 20.1064 26.2135 18.438 25.172C17.8964 24.8305 17.2415 24.7176 16.6168 24.858C15.9921 24.9984 15.4484 25.3806 15.105 25.921V25.926C14.9353 26.1943 14.8202 26.4935 14.7664 26.8064C14.7126 27.1193 14.721 27.4398 14.7912 27.7494C14.8615 28.059 14.9921 28.3518 15.1757 28.6108C15.3592 28.8699 15.5921 29.0901 15.861 29.259L15.865 29.264C17.3388 30.1915 18.959 30.8626 20.657 31.249L16.037 35.868C15.5846 36.312 15.3268 36.9173 15.3201 37.5511C15.3133 38.1849 15.5582 38.7955 16.001 39.249L16.042 39.29C16.501 39.763 17.121 39.998 17.741 39.998C18.361 39.998 18.98 39.763 19.438 39.29L24.001 34.753L28.537 39.296C29.501 40.217 31.032 40.196 31.96 39.233C32.3955 38.7822 32.6389 38.1798 32.6389 37.553C32.6389 36.9262 32.3955 36.3238 31.96 35.873L27.339 31.255ZM24 24.516C26.1896 24.5147 28.2892 23.6446 29.8378 22.0967C31.3865 20.5488 32.2576 18.4496 32.26 16.26C32.26 11.708 28.552 8 24 8C19.448 8 15.74 11.708 15.74 16.26C15.7424 18.45 16.6133 20.5497 18.1619 22.0984C19.7104 23.6471 21.8099 24.5184 24 24.521V24.516ZM24 12.844C24.9058 12.8445 25.7744 13.2046 26.4149 13.8451C27.0554 14.4856 27.4155 15.3542 27.416 16.26C27.4157 17.1665 27.056 18.036 26.4156 18.6777C25.7752 19.3193 24.9065 19.6809 24 19.683C23.0931 19.6806 22.224 19.3192 21.5829 18.6777C20.9418 18.0362 20.5808 17.1669 20.579 16.26C20.5822 15.3537 20.9436 14.4854 21.5845 13.8445C22.2253 13.2036 23.0937 12.8422 24 12.839V12.844Z" fill="white"/>
</svg>
