<svg width="48" height="48" viewBox="0 0 48 48" fill="none" xmlns="http://www.w3.org/2000/svg">
<rect width="48" height="48" rx="15" fill="#118400" fill-opacity="0.35"/>
<path fill-rule="evenodd" clip-rule="evenodd" d="M32.0253 12.6449C32.396 12.4889 32.8017 12.4351 33.2003 12.4891C33.5988 12.5431 33.9756 12.703 34.2914 12.952C34.6072 13.201 34.8504 13.5301 34.9959 13.9051C35.1413 14.28 35.1836 14.6871 35.1183 15.0839L31.7163 35.7194C31.3863 37.7099 29.2023 38.8514 27.3768 37.8599C25.8498 37.0304 23.5818 35.7524 21.5418 34.4189C20.5218 33.7514 17.3973 31.6139 17.7813 30.0929C18.1113 28.7924 23.3613 23.9054 26.3613 20.9999C27.5388 19.8584 27.0018 19.1999 25.6113 20.2499C22.1583 22.8569 16.6143 26.8214 14.7813 27.9374C13.1643 28.9214 12.3213 29.0894 11.3133 28.9214C9.47433 28.6154 7.76883 28.1414 6.37683 27.5639C4.49583 26.7839 4.58733 24.1979 6.37533 23.4449L32.0253 12.6449Z" fill="white"/>
</svg>
