<svg width="48" height="48" viewBox="0 0 48 48" fill="none" xmlns="http://www.w3.org/2000/svg">
<rect width="48" height="48" rx="15" fill="#118400" fill-opacity="0.35"/>
<path fill-rule="evenodd" clip-rule="evenodd" d="M37.1534 28.5215C37.1534 28.5215 39.9832 31.3162 40.6832 32.6095C40.6968 32.6281 40.7074 32.6488 40.7147 32.6707C40.9999 33.1485 41.0699 33.523 40.9299 33.7995C40.6937 34.2562 39.8939 34.4855 39.6227 34.5047H34.6212C34.2729 34.5047 33.5484 34.4137 32.6664 33.8047C31.9927 33.334 31.3224 32.5587 30.6732 31.801C29.7037 30.6757 28.8654 29.6992 28.0167 29.6992C27.9095 29.699 27.803 29.7168 27.7017 29.7517C27.0594 29.9547 26.2439 30.87 26.2439 33.3077C26.2439 34.0707 25.6419 34.5047 25.2202 34.5047H22.9294C22.1489 34.5047 18.0854 34.2317 14.4822 30.4325C10.0669 25.781 6.10141 16.45 6.06291 16.3677C5.81616 15.764 6.33416 15.435 6.89416 15.435H11.9447C12.6219 15.435 12.8424 15.8445 12.9964 16.212C13.1749 16.6337 13.8364 18.3207 14.9214 20.216C16.6784 23.2995 17.7582 24.5542 18.6209 24.5542C18.783 24.5547 18.9424 24.5125 19.0829 24.4317C20.2099 23.8122 19.9999 19.7872 19.9474 18.9577C19.9474 18.7967 19.9457 17.1605 19.3682 16.3695C18.9552 15.8025 18.2517 15.582 17.8264 15.5015C17.9402 15.337 18.1817 15.085 18.4914 14.9362C19.2632 14.5512 20.6579 14.4952 22.0422 14.4952H22.8104C24.3119 14.5162 24.7004 14.6125 25.2464 14.7507C26.3454 15.0132 26.3664 15.7255 26.2702 18.151C26.2422 18.844 26.2124 19.6245 26.2124 20.5432C26.2124 20.7392 26.2037 20.958 26.2037 21.1802C26.1704 22.4245 26.1267 23.8262 27.0052 24.402C27.1191 24.473 27.2507 24.5106 27.3849 24.5105C27.6894 24.5105 28.6012 24.5105 31.0739 20.2667C32.1589 18.3925 32.9989 16.1822 33.0567 16.016C33.1057 15.9232 33.2527 15.6625 33.4312 15.5575C33.5581 15.4899 33.7004 15.4562 33.8442 15.4595H39.7854C40.4329 15.4595 40.8722 15.5575 40.9579 15.8025C41.1014 16.1997 40.9299 17.4125 38.2174 21.0805C37.7607 21.6912 37.3599 22.2197 37.0082 22.6817C34.5494 25.9087 34.5494 26.0715 37.1534 28.5215Z" fill="white"/>
</svg>
